<?xml version="1.0" encoding="UTF-8"?>
<svg id="Ebene_2" data-name="Ebene 2" xmlns="http://www.w3.org/2000/svg" viewBox="0 0 1117.67 228.83">
  <defs>
    <style>
      .cls-1 {
        fill: #78cdfb;
      }

      .cls-2 {
        fill: #6e8a6a;
      }

      .cls-3 {
        fill: #89c48f;
      }

      .cls-4 {
        fill: #ffdc30;
      }
    </style>
  </defs>
  <g id="Ebene_1-2" data-name="Ebene 1">
    <g>
      <path class="cls-2" d="M146.18,131.9c-19.2,53.49-56.47,96.69-84.03,96.69s-35.16-29.69-28.06-63.09h0s11.96-56.27,11.96-56.27c4.85-23.31,7.01-39.32-4.3-39.32-15.39,0-29.11,20.62-37.69,40.5l-4.06-1.74c9.34-20.72,23.74-44.5,44.08-44.5,23.46,0,26.72,23.11,18.06,63.84l-8.66,40.76c-6.39,30.69-7.31,52.98,11.66,52.98,25.76,0,59.34-43.64,76.23-91.21,5.11-14.4,6-25.42,5.49-30.52-1.52-15.07-8.2-19.14-15.52-23.49-10.09-6-5.43-22.43,7.8-20.58,13.48,1.89,26.23,22.46,7.03,75.96Z"/>
      <path class="cls-2" d="M241.25,184.22c-9.34,20.72-20.03,44.37-40.37,44.37-23.46,0-32.68-18.8-25.16-47.63l14.82-56.85c7.9-30.31,13.23-54.2-.23-54.2-15.39,0-29.11,20.62-37.69,40.5l-4.06-1.74c9.34-20.72,23.74-44.5,44.08-44.5,23.46,0,29.06,23.68,18.06,63.84l-16.33,59.64c-4.89,17.85-6.56,35.2,8.83,35.2s25.46-20.62,34.03-40.5l4,1.87ZM201.32,27.26c0-6.73,5.46-12.19,12.19-12.19s12.2,5.46,12.2,12.19-5.46,12.19-12.2,12.19-12.19-5.46-12.19-12.19Z"/>
      <path class="cls-2" d="M397.22,184.22c-9.34,20.72-20.03,44.37-40.37,44.37-22.79,0-30.97-17.47-25.66-45.17-11.52,23.15-29.39,45.17-53.51,45.17-38.34,0-56.12-36.81-46.47-82.21,9.65-45.4,43.07-82.21,81.41-82.21,22.38,0,32.68,17.24,35.86,37.75l8.03-37.75h20.09l-26.24,123.48c-3.85,18.1-6.56,35.2,8.83,35.2s25.46-20.62,34.03-40.5l4,1.87ZM337.81,152.12l4.13-19.41c7.37-36.99-6.63-64.88-30.09-64.88-26.29,0-51.32,35.17-60.54,78.55-9.22,43.38.86,78.55,27.15,78.55,23.75,0,49.95-33.68,59.36-72.81Z"/>
      <path class="cls-2" d="M430.56,39.27V4.27c0-2.36-1.91-4.27-4.27-4.27h-32.59c-2.36,0-4.27,1.91-4.27,4.27v171.31c0,29.23,23.78,53.01,53.02,53.01h12.07c2.36,0,4.27-1.91,4.27-4.27v-31.33c0-2.36-1.91-4.27-4.27-4.27h-12.07c-6.56,0-11.88-5.32-11.88-11.88v-96.43h30.65c1.52,0,2.95-.81,3.7-2.13,6.8-12.02,15.74-22.68,26.29-31.46,3.07-2.55,1.26-7.54-2.73-7.54h-57.9Z"/>
      <path class="cls-2" d="M677.44,224.32V4.5c0-2.36,1.91-4.27,4.27-4.27h32.22c2.36,0,4.27,1.91,4.27,4.27v219.82c0,2.36-1.91,4.27-4.27,4.27h-32.22c-2.36,0-4.27-1.91-4.27-4.27Z"/>
      <path class="cls-2" d="M925.11,134.03c0-10.18-1.62-20.02-4.64-29.17-12.28-37.92-47.96-65.36-89.89-65.36-52.16,0-94.53,42.42-94.53,94.53s42.37,94.54,94.53,94.54c28.55,0,54.16-12.69,71.5-32.76,2.4-2.78.47-7.1-3.2-7.1h-68.3c-22.83,0-42.21-15.27-49.28-36.61-.92-2.78,1.11-5.66,4.04-5.66h138.89c.58-4.09.88-8.18.88-12.41ZM794.77,104.86c-3.65,0-5.59-4.25-3.25-7.05,9.49-11.32,23.48-18.46,39.06-18.46s29.57,7.14,39.06,18.46c2.34,2.79.39,7.05-3.25,7.05h-71.62Z"/>
      <path class="cls-2" d="M1049.13,67.09c-7.34-16.75-23.9-27.58-42.2-27.58h-98.83c-3.99,0-5.8,4.99-2.73,7.54,10.55,8.78,19.49,19.44,26.29,31.46.75,1.33,2.17,2.13,3.7,2.13h57.95c10.25,0,19.53,6.06,23.65,15.45l.04.1h-18.41c-21.61,0-40.83,10.43-52.9,26.51-8.27,11.04-13.17,24.74-13.17,39.56,0,6.89,1.06,13.55,3.03,19.8,8.43,26.78,33.5,46.26,63.04,46.26,11.32,0,40.97-3.37,60.82-35.49l14.56,33.18c.68,1.55,2.22,2.55,3.91,2.55h35.5c3.08,0,5.15-3.16,3.91-5.99l-68.17-155.5ZM998.59,187.2c-14,0-25.34-11.59-24.92-25.68s11.89-24.19,25.46-24.19h35.92s.27.63.27.63c-3.29,21.19-12.26,49.24-36.73,49.24Z"/>
      <g>
        <g>
          <path class="cls-2" d="M646.63,134.05c0,43.2-32.88,78.72-74.98,82.89-2.74.27-5.52.42-8.33.42s-5.59-.14-8.33-.42c-42.09-4.17-74.98-39.69-74.98-82.89s32.88-78.72,74.98-82.89c2.74-.27,5.52-.42,8.33-.42s5.59.14,8.33.42c42.09,4.17,74.98,39.69,74.98,82.89Z"/>
          <g>
            <path class="cls-4" d="M571.65,51.16v41.24c0,4.6-3.73,8.33-8.33,8.33h-49.98v-8.33c0-4.6,3.73-8.33,8.33-8.33h33.32v-32.91c2.74-.27,5.52-.42,8.33-.42s5.59.14,8.33.42Z"/>
            <path class="cls-4" d="M604.98,109.06h-91.64v8.33c0,4.6,3.73,8.33,8.33,8.33h91.64v-8.33c0-4.6-3.73-8.33-8.33-8.33Z"/>
            <path class="cls-1" d="M513.34,142.38v8.33h91.64c4.6,0,8.33-3.73,8.33-8.33v-8.33h-91.64c-4.6,0-8.33,3.73-8.33,8.33Z"/>
            <path class="cls-3" d="M588.32,159.05h-74.98v8.33c0,4.6,3.73,8.33,8.33,8.33h74.98v-8.33c0-4.6-3.73-8.33-8.33-8.33Z"/>
            <path class="cls-3" d="M596.65,184.04v8.33c0,4.6-3.73,8.33-8.33,8.33h-16.66v16.24c-2.74.27-5.52.42-8.33.42s-5.59-.14-8.33-.42v-24.58c0-4.6,3.73-8.33,8.33-8.33h33.32Z"/>
          </g>
        </g>
        <path class="cls-2" d="M563.43,54.2c44.03,0,79.85,35.82,79.85,79.85,0,20.87-8.02,40.61-22.6,55.58-2.66,2.73-5.3,5.11-7.84,7.06l-.15.11-.15.12c-2.39,1.93-5.04,3.76-8.09,5.6-2.92,1.74-5.61,3.14-8.21,4.3l-.04.02-.04.02c-2.61,1.18-5.28,2.22-7.93,3.09l-.75.24-.31.1c-4.85,1.53-9.87,2.58-14.92,3.12h-.1s-.1.02-.1.02c-.27.03-.54.06-.84.09-2.54.25-5.16.38-7.78.38-44.03,0-79.85-35.82-79.85-79.85,0-17.28,5.44-33.73,15.75-47.57,9.97-13.4,24.17-23.54,39.97-28.56.28-.09.56-.18.84-.26l.08-.02.08-.03c4.81-1.47,9.83-2.47,14.92-3,.26-.03.52-.05.78-.07h.13s.13-.02.13-.02c2.38-.22,4.79-.33,7.17-.33M563.43,39.28c-2.87,0-5.72.13-8.53.39-.39.03-.78.07-1.17.1-6.12.63-12.07,1.83-17.79,3.57-.39.11-.78.24-1.17.36-38.31,12.16-66.12,48.05-66.12,90.35,0,52.28,42.5,94.77,94.77,94.77,3.13,0,6.22-.15,9.26-.45.39-.04.78-.08,1.17-.12,6.12-.66,12.06-1.92,17.79-3.72.39-.12.78-.25,1.17-.37,3.25-1.06,6.43-2.3,9.51-3.7,3.38-1.51,6.62-3.24,9.78-5.12,3.43-2.06,6.72-4.29,9.83-6.81,3.34-2.56,6.48-5.44,9.46-8.5,16.59-17.04,26.82-40.35,26.82-65.98,0-52.28-42.5-94.77-94.77-94.77h0Z"/>
      </g>
    </g>
  </g>
</svg>